<?xml version="1.0" encoding="UTF-8" standalone="no"?>
<svg
   xmlns:dc="http://purl.org/dc/elements/1.1/"
   xmlns:cc="http://creativecommons.org/ns#"
   xmlns:rdf="http://www.w3.org/1999/02/22-rdf-syntax-ns#"
   xmlns:svg="http://www.w3.org/2000/svg"
   xmlns="http://www.w3.org/2000/svg"
   viewBox="0 0 99.424111 44.623047"
   height="44.623047"
   width="99.42411"
   id="svg3699"
   version="1.1">
  <metadata
     id="metadata3705">
    <rdf:RDF>
      <cc:Work
         rdf:about="">
        <dc:format>image/svg+xml</dc:format>
        <dc:type
           rdf:resource="http://purl.org/dc/dcmitype/StillImage" />
        <dc:title></dc:title>
      </cc:Work>
    </rdf:RDF>
  </metadata>
  <defs
     id="defs3703" />
  <path
     id="path3715"
     d=""
     style="fill:#000000" />
  <path
     id="path3713"
     d=""
     style="fill:#000000" />
  <path
     id="path3711"
     d=""
     style="fill:#000000" />
  <path
     id="path3709"
     d=""
     style="fill:#000000" />
  <path
     id="path3717"
     d="M 0.10770532,0 C -0.080276,0.3329162 0.00183475,0.8165307 0.17020532,1.5253906 1.6272413,7.6596777 9.5355918,43.652314 9.6409084,44.623047 H 24.152627 l 2.279297,-8.347656 c 1.27592,-4.675 3.028291,-10.975 3.894531,-14 l 1.574219,-5.5 2.794922,10 c 1.53744,5.50001 3.3098,11.931928 3.9375,14.292968 l 0.945312,3.554688 H 54.054971 L 58.787393,23.275391 C 61.408553,11.450396 63.580164,1.1930987 63.613565,0.4804688 63.622457,0.2908693 63.541315,0.1365679 63.40458,0 H 50.228799 l -2.158203,11.275391 c -1.2109,6.325 -2.278394,11.725 -2.371094,12 -0.14642,0.43432 -2.57686,-7.684432 -6.0625,-20.2500004 L 38.799111,0 H 24.84208 l -3.085937,11.275391 c -1.80628,6.6 -3.4121,12 -3.56836,12 -0.15626,0 -1.324063,-5.4 -2.595703,-12 L 13.418252,0 Z M 74.769815,0 70.758096,17.03125 c -2.42934,10.309745 -4.976606,21.106641 -5.660157,23.994141 l -0.853515,3.597656 h 8.701172 C 73.313615,42.859728 76.431862,29.784643 78.174111,22.365234 79.924703,14.910295 82.847013,2.6550591 83.424111,0 Z M 91.668018,-0.07185629 87.656299,16.959394 c -2.42934,10.309745 -4.723248,21.178631 -5.660157,23.994141 l -1.404413,4.22041 8.353867,-0.550898 C 89.313615,42.859728 91.402887,33.945146 94.174111,22.365234 96.762423,11.549648 98.847013,2.6550591 99.424111,0 Z"
     style="fill:#000000" />
</svg>
